<svg xmlns="http://www.w3.org/2000/svg" height="128" width="128"><path d="M64.577 11.871c-28.326 0-51.289 5.315-51.289 11.873 0 .16.024.321.05.48h-.003l3.55 23.727c1.752 1.343 4.333 2.59 7.579 3.7l6.47 1.828c9.117 2.134 21.256 3.439 34.594 3.439 20.61 0 38.367-3.11 46.524-7.594l2.66-17.775c-9.118 3.089-24.716 5.125-42.436 5.125-28.116 0-50.908-5.127-50.908-11.451 0-6.326 22.792-11.452 50.908-11.452 12.524 0 23.982 1.02 32.85 2.706-9.386-2.8-24.052-4.606-40.549-4.606zM23.542 52.04c-3.496 1.506-5.506 3.221-5.506 5.049 0 .145.022.29.047.433h-.004l3.207 21.393c13.887 7.052 30.723 9.289 43.93 9.352 18.613 0 34.652-4.07 42.015-8.114l2.405-17.925c-8.233 2.785-22.323 6.521-38.325 6.521-25.393 0-45.978-4.622-45.978-10.324.001-1.507 1.45-2.936 4.027-4.225zm5.06 30.783s-6.109 2.422-6.765 5.963c.973 6.016 2.079 12.244 2.97 17.42 5.61 4.294 21.465 9.924 40.165 9.924 17.016 0 31.045-3.83 37.777-7.525l2.83-16.553c-7.527 2.546-24.207 7.392-38.838 7.392-23.214 0-38.234-4.226-38.234-9.44 0-1.744 2.255-3.565 5.933-4.968a82.783 82.783 0 01-5.837-2.213z" fill="#fff"/></svg>